<svg width="56" height="56" viewBox="0 0 56 56" fill="none" xmlns="http://www.w3.org/2000/svg">
<rect x="1.62433" y="2" width="52" height="52" rx="26" stroke="black" stroke-width="3"/>
<path d="M27.6243 9.66669C30.0555 9.66669 32.3871 10.6325 34.1062 12.3515C35.8252 14.0706 36.791 16.4022 36.791 18.8334C36.791 21.2645 35.8252 23.5961 34.1062 25.3152C32.3871 27.0342 30.0555 28 27.6243 28C25.1932 28 22.8616 27.0342 21.1425 25.3152C19.4235 23.5961 18.4577 21.2645 18.4577 18.8334C18.4577 16.4022 19.4235 14.0706 21.1425 12.3515C22.8616 10.6325 25.1932 9.66669 27.6243 9.66669ZM27.6243 32.5834C37.7535 32.5834 45.9577 36.6854 45.9577 41.75V46.3334H9.29102V41.75C9.29102 36.6854 17.4952 32.5834 27.6243 32.5834Z" fill="black"/>
</svg>
