<svg width="60" height="60" viewBox="0 0 60 60" fill="none" xmlns="http://www.w3.org/2000/svg">
<path d="M5 30C5 26.717 5.64664 23.4661 6.90301 20.4329C8.15938 17.3998 10.0009 14.6438 12.3223 12.3223C14.6438 10.0009 17.3998 8.15938 20.4329 6.90301C23.4661 5.64664 26.717 5 30 5C36.6304 5 42.9893 7.63392 47.6777 12.3223C52.3661 17.0107 55 23.3696 55 30C55 33.283 54.3534 36.5339 53.097 39.5671C51.8406 42.6002 49.9991 45.3562 47.6777 47.6777C42.9893 52.3661 36.6304 55 30 55C23.3696 55 17.0107 52.3661 12.3223 47.6777C7.63392 42.9893 5 36.6304 5 30ZM25 42.5L37.5 30L25 17.5L25 42.5Z" fill="white"/>
</svg>
