<svg width="61" height="60" viewBox="0 0 61 60" fill="none" xmlns="http://www.w3.org/2000/svg">
<path d="M30.8421 5C34.1251 5 37.376 5.64664 40.4092 6.90301C43.4423 8.15938 46.1983 10.0009 48.5198 12.3223C50.8412 14.6438 52.6827 17.3998 53.9391 20.4329C55.1955 23.4661 55.8421 26.717 55.8421 30C55.8421 36.6304 53.2082 42.9893 48.5198 47.6777C43.8314 52.3661 37.4725 55 30.8421 55C27.5591 55 24.3082 54.3534 21.275 53.097C18.2419 51.8406 15.4859 49.9991 13.1644 47.6777C8.47602 42.9893 5.8421 36.6304 5.8421 30C5.8421 23.3696 8.47602 17.0107 13.1644 12.3223C17.8528 7.63392 24.2117 5 30.8421 5V5ZM18.3421 25L30.8421 37.5L43.3421 25H18.3421Z" fill="black"/>
</svg>
