<svg width="56" height="56" viewBox="0 0 56 56" fill="none" xmlns="http://www.w3.org/2000/svg">
<rect x="1.62427" y="2" width="52" height="52" rx="26" stroke="black" stroke-width="3"/>
<path d="M15.2951 25.2271C18.5951 31.7125 23.9118 37.0292 30.3972 40.3292L35.4389 35.2875C36.0805 34.6458 36.9743 34.4625 37.7764 34.7146C40.343 35.5625 43.093 36.0208 45.9576 36.0208C46.5654 36.0208 47.1483 36.2623 47.5781 36.692C48.0078 37.1218 48.2493 37.7047 48.2493 38.3125V46.3333C48.2493 46.9411 48.0078 47.524 47.5781 47.9538C47.1483 48.3836 46.5654 48.625 45.9576 48.625C35.6252 48.625 25.716 44.5205 18.4099 37.2144C11.1038 29.9083 6.99927 19.9991 6.99927 9.66667C6.99927 9.05888 7.24071 8.47598 7.67048 8.04621C8.10025 7.61644 8.68315 7.375 9.29093 7.375H17.3118C17.9196 7.375 18.5024 7.61644 18.9322 8.04621C19.362 8.47598 19.6034 9.05888 19.6034 9.66667C19.6034 12.5312 20.0618 15.2813 20.9097 17.8479C21.1618 18.65 20.9784 19.5438 20.3368 20.1854L15.2951 25.2271Z" fill="black"/>
</svg>
