<svg xmlns="http://www.w3.org/2000/svg" version="1.1" xmlns:xlink="http://www.w3.org/1999/xlink" viewBox="0 0 6.47824459243388 6.579498802400494"><g transform="matrix(1,0,0,1,2.103551280282975,2.212822852158602)"><g><path d=" M -0.793581415908572 0.5183925788811725 L -1.3130748178754943 0.031873801448686345 L -1.394473223863388 0.22541422301097647 L -1.4862924006045675 0.18679730482137125 L -1.3498080966109134 -0.1377204717981897 L -1.2881452181131605 -0.11178656105320972 L -0.7688411147648148 0.3751823103829097 L -0.678545673703826 0.16048747064985758 L -0.5867264969626466 0.1991043888394628 L -0.7319185374108191 0.5443264896261525 L -0.793581415908572 0.5183925788811725 M -0.41145436103472394 -0.045646509130093105 Q -0.42350217526888023 -0.02965801940626403 -0.4401416939626459 -0.012849806864269453 Q -0.45678121265641153 0.00395840567772518 -0.47878134810045436 0.01611584270461991 Q -0.5007814835444971 0.02827327973151461 -0.5285775024116488 0.03392348595033284 Q -0.5563735212788005 0.03957369216915105 -0.5907851463872265 0.0341249631202834 Q -0.6251967714956526 0.028676234071415785 -0.6671453467185139 0.009294453042565154 Q -0.7090939219413751 -0.010087327986285505 -0.7590092069328415 -0.047700016327066136 L -0.9949369211503192 -0.2254787385627871 Q -1.0452421693057814 -0.2633852760312301 -1.0748998916943218 -0.2982667160742495 Q -1.1045576140828621 -0.33314815611726895 -1.1189394414920817 -0.36477247417202396 Q -1.1333212689013012 -0.39639679222677904 -1.1349674689158347 -0.4242326075841045 Q -1.1366136689303683 -0.4520684229414301 -1.1302601170643254 -0.4763217312206478 Q -1.1239065651982827 -0.5005750394998656 -1.1124354351821273 -0.5206664029736437 Q -1.1009643051659719 -0.5407577664474219 -1.089210340059478 -0.5563562930072552 Q -1.0780440732083085 -0.5711748932390968 -1.0622352913700324 -0.5876920101627598 Q -1.046426509531756 -0.6042091270864232 -1.0255482065615338 -0.6169062053504758 Q -1.0046699035913118 -0.6296032836145284 -0.9775068864883207 -0.6360361696706693 Q -0.9503438693853294 -0.6424690557268101 -0.9159803012950702 -0.6373622328237716 Q -0.8816167332048108 -0.6322554099207329 -0.8395212334181184 -0.6130686104738803 Q -0.7974257336314259 -0.5938818110270276 -0.7463405591479721 -0.55538757530326 L -0.5104128449304945 -0.377608853067539 Q -0.46088752310302394 -0.3402900138544207 -0.43137672527831483 -0.30521359222940336 Q -0.4018659274536056 -0.27013717060438597 -0.3870941368803902 -0.23821900342196856 Q -0.3723223463071748 -0.2063008362395512 -0.3703850506743098 -0.1776342840267363 Q -0.3684477550414449 -0.14896773181392142 -0.37372753145183374 -0.12451668844337482 Q -0.3790073078622226 -0.10006564507282817 -0.38979462558671985 -0.08007039563538351 Q -0.40058194331121705 -0.06007514619793883 -0.41145436103472394 -0.045646509130093105 M -0.4874971780139109 -0.10294708902425109 Q -0.4763309111627417 -0.11776568925609265 -0.47302573215631055 -0.13269967808958438 Q -0.4697205531498794 -0.1476336669230761 -0.4767631655359925 -0.1642511575421941 Q -0.48380577792210566 -0.18086864816131215 -0.5014872773190945 -0.20000037742154586 Q -0.5191687767160833 -0.21913210668177951 -0.5503658298357498 -0.24264003689476743 L -0.8533672082605102 -0.4709608090884123 Q -0.8853441877081683 -0.495056437556725 -0.9095837284407313 -0.5075134895201937 Q -0.9338232691732944 -0.5199705414836625 -0.9523232440289081 -0.5226001687264283 Q -0.9708232188845219 -0.5252297959691942 -0.9846574033188404 -0.5182297335825858 Q -0.998491587753159 -0.5112296711959776 -1.0096578546043284 -0.49641107096413606 Q -1.02111797058316 -0.48120250756829863 -1.0241801109894264 -0.4657796880251466 Q -1.027242251395693 -0.45035686848199463 -1.0197616188274172 -0.4331036225893852 Q -1.0122809862591415 -0.4158503766967757 -0.993624578952163 -0.39598402461738613 Q -0.9749681716451847 -0.37611767253799655 -0.9429911921975266 -0.35202204406968396 L -0.6399898137727661 -0.12370127187603908 Q -0.6087927606530996 -0.10019334166305116 -0.5855281278305262 -0.08847091251873823 Q -0.5622634950079528 -0.0767484833744253 -0.5442015403345015 -0.07475461140515097 Q -0.5261395856610503 -0.07276073943587658 -0.5125484398268965 -0.08024963253214512 Q -0.4989572939927426 -0.0877385256284137 -0.4874971780139109 -0.10294708902425109 M -0.043980054054590656 -0.416134790752421 Q -0.05985731867657795 -0.4039407717433691 -0.08037853393058347 -0.392181974367965 Q -0.10089974918458902 -0.3804231769925608 -0.12534623299979614 -0.37457692488612904 Q -0.14979271681500322 -0.3687306727796973 -0.17808858859317256 -0.37070225475659374 Q -0.2063844603713419 -0.37267383673349025 -0.23809449847882577 -0.38710720342573324 Q -0.26980453658630965 -0.4015405701179763 -0.3050604402637984 -0.4314129261509711 Q -0.3403163439412872 -0.4612852821839659 -0.37838547645735143 -0.510853327833097 L -0.5583216106153113 -0.745139793596568 Q -0.5966881582291573 -0.7950950896023329 -0.615963007365194 -0.8366255067388548 Q -0.6352378565012307 -0.8781559238753768 -0.6406597879870397 -0.9124711844895712 Q -0.6460817194728488 -0.9467864451037654 -0.6402406875772017 -0.9740522650527236 Q -0.6343996556815545 -1.0013180850016818 -0.6218048581481916 -1.0229966841006748 Q -0.6092100606148285 -1.044675283199668 -0.5927937844397286 -1.0609772949352132 Q -0.5763775082646289 -1.0772793066707584 -0.5608874939992754 -1.0891759105820287 Q -0.5461719804471896 -1.100477684297735 -0.5265290558259166 -1.1121776093831004 Q -0.5068861312046435 -1.123877534468466 -0.4833768103122078 -1.1305432049175914 Q -0.45986748941977196 -1.1372088753667169 -0.43197282265884923 -1.136160501651979 Q -0.40407815589792645 -1.135112127937241 -0.37232320016101655 -1.1210210939722058 Q -0.3405682444241066 -1.1069300600071705 -0.3051187155683009 -1.0772064115230666 Q -0.26966918671249523 -1.0474827630389627 -0.23070780890308573 -0.9967529663199302 L -0.05077167474512587 -0.762466500556459 Q -0.012999957326843364 -0.7132857052639618 0.006081266630876381 -0.671606580578549 Q 0.025162490588596098 -0.6299274558931361 0.0308818371721869 -0.5952249449223079 Q 0.0366011837557777 -0.5605224339514798 0.030819024150169405 -0.5323783233697892 Q 0.025036864544561166 -0.5042342127880985 0.013424147563395439 -0.4820785280736196 Q 0.0018114305822297116 -0.45992284335914063 -0.01392018013845453 -0.44353099636474325 Q -0.029651790859138716 -0.4271391493703458 -0.043980054054590656 -0.416134790752421 M -0.10197599812203229 -0.49164861029601903 Q -0.0872604845699465 -0.5029503840117255 -0.08009024567704492 -0.5164609689347455 Q -0.07292000678414337 -0.5299715538577652 -0.07527315831543346 -0.5478657445790104 Q -0.07762630984672353 -0.5657599353002556 -0.08956172409224405 -0.5889160224524586 Q -0.10149713833776458 -0.6120721096046617 -0.12529034616030474 -0.6430521381353687 L -0.3563818771367259 -0.9439456652398595 Q -0.38076991515482955 -0.9757001944838342 -0.40080662392084737 -0.9941735206697684 Q -0.4208433326868652 -1.0126468468557028 -0.43797087006027985 -1.0201175544939738 Q -0.45509840743369456 -1.027588262132245 -0.47029885396670335 -1.0245334368383388 Q -0.48549930049971224 -1.0214786115444325 -0.500214814051798 -1.010176837828726 Q -0.5153175779605177 -0.9985776490152376 -0.5223840269339544 -0.9845311061866932 Q -0.5294504759073911 -0.9704845633581487 -0.5268448269077453 -0.9518607895530619 Q -0.5242391779080995 -0.933237015747975 -0.5115602259181247 -0.9091128027041874 Q -0.4988812739281497 -0.8849885896603997 -0.47449323591004605 -0.8532340604164251 L -0.24340170493362487 -0.5523405333119342 Q -0.2196084971110847 -0.5213605047812273 -0.2003153260895213 -0.5038553044868775 Q -0.18102215506795788 -0.48635010419252783 -0.1641471151628989 -0.47960897963809834 Q -0.14727207525783995 -0.47286785508366885 -0.1321754186442959 -0.4764586382830998 Q -0.1170787620307519 -0.4800494214825307 -0.10197599812203229 -0.49164861029601903 M 0.30665562506387123 -1.5323075059787294 L 0.446636276633753 -1.5720308075107838 L 0.8227479709721139 -0.8118482920838412 L 0.699677733685842 -0.7769237786563303 L 0.6368105494825096 -0.9143972155971936 L 0.49025362569122394 -0.87280771869115 L 0.5099053067253312 -0.7230707121497868 L 0.38636533570895903 -0.6880128990527052 L 0.30665562506387123 -1.5323075059787294 M 0.596725102013224 -1.0019963028796277 L 0.426919035596566 -1.3857437468464826 L 0.42175196456546304 -1.3842774504812057 L 0.478352202027955 -0.9684047861478232 L 0.596725102013224 -1.0019963028796277 M 0.907771434223117 -1.6545920435568928 L 1.0449618479384133 -1.6567274144999198 Q 1.0683965093559729 -1.6570921753727497 1.09649967758516 -1.6555762400501979 Q 1.1246028458143476 -1.6540603047276456 1.1527934046693171 -1.6469298151071365 Q 1.1809839635242867 -1.6397993254866274 1.2073394212929778 -1.6250709963772956 Q 1.2336948790616686 -1.6103426672679637 1.2543664527275344 -1.5842940393445106 Q 1.2750380263934 -1.558245411421057 1.2878629127803718 -1.5186452888437583 Q 1.3006877991673438 -1.4790451662664594 1.3015693046100167 -1.422411401174024 L 1.3018960695585937 -1.4014178503207937 Q 1.3033779106044665 -1.3062145383119579 1.2769683724281824 -1.2459817751342595 Q 1.2505588342518985 -1.185749011956561 1.1977529799314577 -1.158556706713088 L 1.3367160821096729 -0.8271831802748032 L 1.2029432231844375 -0.8251010036257308 L 1.0872609244443434 -1.1353499187858989 L 1.0399033794963586 -1.1346127978553877 L 1.0447592586159107 -0.8226388677341269 L 0.9207508419479917 -0.8207086747820671 L 0.907771434223117 -1.6545920435568928 M 1.0575229943310582 -1.2262067011704714 Q 1.090722098005934 -1.226723445740314 1.1135545495378683 -1.234403939121281 Q 1.1363870010698025 -1.242084432502248 1.150275671280714 -1.2596366938696528 Q 1.1641643414916256 -1.2771889552370579 1.1700666766451195 -1.3058487382427666 Q 1.1759690117986135 -1.3345085212484755 1.1753154819014593 -1.3764956229549363 L 1.1742895919466245 -1.4424056081918224 Q 1.1737880457464829 -1.4746282676409668 1.1675646195192628 -1.4979717388403186 Q 1.1613411932920428 -1.5213152100396705 1.1471912883449973 -1.5362335187702683 Q 1.1330413833979518 -1.5511518275008658 1.1099809563204988 -1.5581179975058737 Q 1.0869205292430455 -1.5650841675108813 1.0522567592295722 -1.5645446253864868 L 1.033216096827805 -1.564248257177312 L 1.038482331929291 -1.2259103329612968 L 1.0575229943310582 -1.2262067011704714 M 1.6208029655545004 -0.7548916730964397 Q 1.601838455997744 -0.7595625513686923 1.580551231357256 -0.768074180163159 Q 1.559264006716768 -0.7765858089576256 1.5396699754499716 -0.7919720724664164 Q 1.5200759441831753 -0.8073583359752071 1.504421873116165 -0.8305744845878535 Q 1.4887678020491548 -0.8537906332004999 1.4807157713130883 -0.8874548243485962 Q 1.4726637405770218 -0.9211190154966925 1.4742199481726876 -0.9672514970044145 Q 1.4757761557683533 -1.0133839785121364 1.4907229662395618 -1.0740704090937563 L 1.5613700001073838 -1.3609086161396942 Q 1.5764335825353988 -1.4220691594602328 1.596600471361555 -1.463115035935186 Q 1.616767360187711 -1.5041609124101396 1.6397113278724298 -1.5299394840179628 Q 1.6626552955571485 -1.555718055625786 1.6873627057324951 -1.5682390328231137 Q 1.7120701159078417 -1.5807600100204415 1.7361563550558348 -1.5846336984162699 Q 1.7602425942038276 -1.5885073868120978 1.7825153555654756 -1.5860389392109238 Q 1.8047881169271238 -1.5835704916097497 1.823278513744961 -1.5790163852943033 Q 1.8716380131146892 -1.567105645700059 1.9007867349616543 -1.5455945535996376 Q 1.9299354568086193 -1.5240834614992158 1.9438309236118412 -1.495768844715268 Q 1.957726390415063 -1.46745422793132 1.958316414196927 -1.4341192779185616 Q 1.9589064379787908 -1.4007843279058032 1.9502653131751233 -1.3656999852258043 Q 1.9438428555507758 -1.3396237845852645 1.9358053394952282 -1.3182197879879702 Q 1.9277678234396805 -1.296815791390676 1.9160133537304187 -1.2715499695360866 L 1.8164496785574484 -1.2960720804654133 L 1.8266088387995982 -1.337319888751358 Q 1.8430736847092888 -1.4041697849389236 1.836550226779245 -1.4409776073242428 Q 1.8300267688492013 -1.477785429709562 1.8015800045140669 -1.4847917471179413 Q 1.7845119459129863 -1.4889955375629687 1.7700760945668874 -1.4855108020518744 Q 1.7556402432207885 -1.4820260665407803 1.7431943533672367 -1.4682451850095108 Q 1.7307484635136847 -1.454464303478241 1.7198219348696075 -1.4294974364273614 Q 1.7088954062255306 -1.4045305693764816 1.6993201057674125 -1.3656533247851312 L 1.608237979458485 -0.9958453884283852 Q 1.5988962229139796 -0.9579163693148728 1.5962631547451367 -0.9319126044761235 Q 1.5936300865762936 -0.9059088396373741 1.5979533005201128 -0.8887521087262618 Q 1.6022765144639322 -0.8715953778151494 1.6137381933673167 -0.8619836270275704 Q 1.6251998722707013 -0.8523718762399914 1.6436902690885387 -0.847817769924545 Q 1.6555430875615111 -0.8448984710043872 1.6677905580599186 -0.8476650124954093 Q 1.680038028558326 -0.8504315539864313 1.691195914431162 -0.860003806845834 Q 1.7023538003039973 -0.8695760597052367 1.7117109324428827 -0.8861291818682292 Q 1.7210680645817682 -0.9026823040312218 1.7270234343788904 -0.9268620537160861 L 1.7465243511655455 -1.0060388811155432 L 1.858889070289326 -0.978363927352446 L 1.8404391011139278 -0.903454114603259 Q 1.8163840780118263 -0.8057868903859645 1.7603738287864301 -0.7703004059117056 Q 1.7043635795610341 -0.7348139214374467 1.6208029655545004 -0.7548916730964397 M 2.375042280052269 -1.36716274406903 L 2.503539666940295 -1.2988916296685447 L 2.2484997704993126 -0.4900083781406871 L 2.135525557866216 -0.5500319753652748 L 2.1853630874729655 -0.6927465484007068 L 2.0508289105969113 -0.764225030591819 L 1.9613210467831204 -0.6425874458947919 L 1.8479156348651649 -0.7028401408187102 L 2.375042280052269 -1.36716274406903 M 2.217101160296636 -0.7837033399281552 L 2.3603193882437834 -1.1781456552629481 L 2.3555761961103325 -1.1806657299555834 L 2.108438940512131 -0.8414359601594381 L 2.217101160296636 -0.7837033399281552 M 2.8946040574162692 -1.038436644141754 L 2.9906244545009097 -0.9488135994150987 Q 3.0123985965907356 -0.9284901580458571 3.0346129287561654 -0.9054181103901241 Q 3.0568272609215956 -0.8823460627343911 3.073139751675165 -0.8550977079279247 Q 3.089452242428735 -0.8278493531214581 3.0967692233244524 -0.7959726100991407 Q 3.10408620422017 -0.7640958670768231 3.0965891825045775 -0.7260083403789317 Q 3.089092160788985 -0.6879208136810404 3.063687468016091 -0.6431704222424577 Q 3.0382827752431973 -0.5984200308038751 2.9889734420850376 -0.545590964749872 L 2.823720541771204 -0.36854220283915895 Q 2.7744112086130444 -0.31571313678515583 2.7313492259534935 -0.2871096561014571 Q 2.6882872432939426 -0.2585061754177585 2.650972742646207 -0.24858350357332948 Q 2.6136582419984715 -0.23866083172890046 2.581353423353687 -0.2437660885752029 Q 2.549048604708902 -0.2488713454215053 2.5207419518357796 -0.2632693868634846 Q 2.4924352989626577 -0.27766742830546387 2.4678887686073145 -0.29824080391810215 Q 2.443342238251972 -0.31881417953074037 2.421568096162146 -0.3391376208999819 L 2.3255476990775055 -0.42876066562663734 L 2.8946040574162692 -1.038436644141754 M 2.501861454274654 -0.38508855535212794 Q 2.526848174705601 -0.36176657345299823 2.549086624045493 -0.3530324419008076 Q 2.571325073385385 -0.34429831034861696 2.595943620068678 -0.35171064262406226 Q 2.620562166751971 -0.35912297489950756 2.65028563508613 -0.38381208539719436 Q 2.6800091034202893 -0.4085011958948811 2.7199896438187974 -0.45133557377650524 L 2.8965703639122076 -0.6405207427536785 Q 2.9365509043107156 -0.6833551206353026 2.9591353096646045 -0.7147076545327407 Q 2.9817197150184933 -0.7460601884301789 2.9874197448040687 -0.7711305927149652 Q 2.993119774589644 -0.7962009969997514 2.982875487369305 -0.8177854419164294 Q 2.972631200148965 -0.8393698868331073 2.9476444797180177 -0.8626918687322369 L 2.9240855718831247 -0.8846811659514163 L 2.4783025464397603 -0.40707785257130735 L 2.501861454274654 -0.38508855535212794 M 3.378086992240482 -0.5214231829855756 L 3.4504810052041517 -0.41772909640525074 L 2.766660542350118 0.059680070165978455 L 2.6942665293864483 -0.044014016414346345 L 3.378086992240482 -0.5214231829855756 M 3.6541697529716064 -0.05573639945276598 L 3.7122932382649774 0.07765844286089502 L 3.009369180147434 0.5522479833044984 L 2.9582673239499067 0.4349679541562461 L 3.086076108980752 0.35424532298673783 L 3.0252219901501087 0.21458360888652903 L 2.8794690418743305 0.25412393974443725 L 2.828172140424141 0.13639627689714579 L 3.6541697529716064 -0.05573639945276598 M 3.167513322713513 0.30278248774641203 L 3.525044170276335 0.08308293384608423 L 3.5228986724970497 0.0781589631566538 L 3.118361919042609 0.18997879558855105 L 3.167513322713513 0.30278248774641203" fill="#00d3a9" fill-rule="nonzero"></path></g><g><path d=" M -0.4990953017257337 2.48866804663112 Q -0.5355722953337035 2.5322700203746376 -0.5897717431615148 2.570769272806432 Q -0.6439711909893261 2.6092685252382264 -0.6969794042843294 2.6331001810817973 Q -0.7499876175793326 2.6569318369253683 -0.8012344447042171 2.6684551893603943 Q -0.8524812718291016 2.6799785417954207 -0.9005792753144766 2.6795902017690616 Q -0.9486772787998516 2.679201861742702 -0.9909288686460406 2.66719709132525 Q -1.0782069232771994 2.6423943285960276 -1.1262331093616074 2.5747828140176057 Q -1.1338024539075193 2.5641266513938326 -1.1292231580489143 2.556174573586886 Q -1.1246438621903092 2.5482224957799398 -1.1150900612172712 2.5414361868767084 L -1.0834890272295303 2.5189891651198653 Q -1.0607068864476707 2.502806428504467 -1.0283177236914307 2.4795231501036015 Q -0.9959285609351908 2.4562398717027354 -0.9561903205073832 2.427736355683999 Q -0.9164520800795755 2.399232839665263 -0.8740352204640343 2.3682737747158003 Q -0.831618360848493 2.3373147097663374 -0.7884665934657952 2.3058336210550876 Q -0.7453148260830973 2.274352532343838 -0.7061518304184191 2.245428341440181 Q -0.6254082317822228 2.184756956818562 -0.5800947758477597 2.1481467931146705 Q -0.5564129711688974 2.128560715796019 -0.5365075678421914 2.150357123181466 Q -0.5063060729063161 2.1819785296724814 -0.49012333629091787 2.204760670454341 Q -0.38519656017172244 2.3524771316528503 -0.4990953017257337 2.48866804663112 M -1.0775978027369892 2.570090206926847 Q -1.046633644661708 2.6105684482476303 -0.9832271028288441 2.6274491782853113 Q -0.8653671097439317 2.658724530675036 -0.7210595960140004 2.594919227379045 Q -0.6714357526103069 2.5729387186394903 -0.6165013970153388 2.533917442445909 Q -0.5615670414203708 2.4948961662523277 -0.5304903209375731 2.4526422866629827 Q -0.49941360045477545 2.4103884070736377 -0.49030033323042654 2.371849297687119 Q -0.4731863466841011 2.299431351146279 -0.5180803901977866 2.2362292831707973 Q -0.5376562812648007 2.2086702419024187 -0.5558031018040502 2.195576099468531 Q -0.5957389468597718 2.219520692131937 -0.6640853692053507 2.2680689019781317 Q -0.7460275852433298 2.326274551417387 -0.7891261316246853 2.3574414072464007 Q -0.8322246780060407 2.3886082630754144 -0.8733554490290576 2.41865378644175 Q -0.9144862200520745 2.4486993098080854 -0.9521261791810967 2.4762652203059323 Q -0.9897661383101188 2.5038311308037793 -1.0193753330017592 2.5259690128042047 Q -1.0564400473676518 2.5539555981869726 -1.0775978027369892 2.570090206926847 M -0.559162927401635 2.873217390196146 L -0.6671274854938722 2.991312224576065 Q -0.6818150032397259 3.0071972302514016 -0.692218661643039 3.0184491092714314 Q -0.6964775733203821 3.0237191634980127 -0.6998434628038068 3.0273594772986105 Q -0.6164471830082908 3.1044689454643426 -0.5865314410703794 3.1272186106206585 Q -0.5553168963247207 3.150555308017854 -0.5519077294815687 3.1561629178333397 Q -0.5484985626384168 3.161770527648825 -0.5479430960334026 3.1678088657433365 Q -0.5468321628233742 3.1798855419323604 -0.5534109468137045 3.187000700724438 Q -0.5599897308040349 3.1941158595165158 -0.5710203898226207 3.1934315834914426 Q -0.5820510488412067 3.1927473074663695 -0.5926909479551594 3.1816817738265843 Q -0.64298684795639 3.1271972324911803 -0.6892715281643933 3.0896195284450902 Q -0.7355562083723967 3.052041824399 -0.7416161851467721 3.0479733291959725 Q -0.7476761619211474 3.0439048339929453 -0.7510479072665031 3.039252615534372 Q -0.7544196526118587 3.034600397075799 -0.7552811091699114 3.0288929965995233 Q -0.7576908451876869 3.01622928816962 -0.7469313015009402 3.0059203266739036 Q -0.6535361407992368 2.914869204299228 -0.5462866622592009 2.798875569107449 Q -0.439037183719165 2.6828819339156698 -0.411179624160052 2.6530850744418153 Q -0.38332206460093887 2.623288214967961 -0.36037281812304245 2.5984678936002474 Q -0.31177031092029717 2.5445749571581464 -0.29307666713440994 2.5210376557802476 Q -0.2743830233485227 2.497500354402349 -0.2679231218222493 2.4954930900130683 Q -0.261463220295976 2.4934858256237877 -0.2559869667771463 2.4948660893977954 Q -0.24888097283233335 2.4971393753657214 -0.24249336742505578 2.505500894758554 Q -0.23073591713040686 2.5206690361138295 -0.20790122147211076 2.541782342873494 Q -0.16388651824669953 2.58247900662763 -0.14615309902053264 2.5954993624497043 Q -0.12841967979436575 2.6085197182717783 -0.125163507927733 2.614292796896382 Q -0.12190733606110038 2.6200658755209854 -0.12137681712128379 2.6254672860442225 Q -0.11965390400517817 2.6368820869967733 -0.12669167292506645 2.6444936522162057 Q -0.1337294418449546 2.6521052174356377 -0.14427616826878498 2.651561462554485 Q -0.15482289469261556 2.6510177076733323 -0.16462297592837905 2.641035612701781 Q -0.17442305716414253 2.6310535177302294 -0.185240898919812 2.6195165253282875 Q -0.19605874067548168 2.6079795329263455 -0.20868426549885133 2.5950780595683285 Q -0.23556505557157426 2.5683820906583756 -0.2576131376674101 2.5510654016611625 Q -0.28423426358176995 2.5798569744477096 -0.31088033716132735 2.608011619662982 Q -0.34242224998950266 2.6414612667700332 -0.3748821326767938 2.675903726731793 Q -0.46216411228839277 2.7683101652152784 -0.5031667659955676 2.8126558060589257 Q -0.46179956371604586 2.850904550188753 -0.4404383045218798 2.866972331708615 Q -0.41711636728349427 2.884239125375433 -0.41563376597209944 2.8935901486376405 Q -0.4141511646607046 2.902941171899848 -0.4208829436275542 2.910221799501044 Q -0.4377123910446783 2.9284233685040335 -0.47118698581692703 2.8962445281045834 Q -0.47783068584684807 2.8894878014725363 -0.48345662535686307 2.8842859722708796 L -0.5099565824809547 2.8591698484565153 L -0.5294819019568889 2.841116441227237 L -0.559162927401635 2.873217390196146 M -0.23105378888764472 3.1987098321937117 Q -0.2849842671596443 3.293068904856361 -0.3141963911443173 3.343893404305967 Q -0.3218541934323813 3.3571750496607287 -0.33247108338743714 3.35936677667124 Q -0.3430879733424929 3.3615585036817515 -0.3509534200714156 3.356709962692509 Q -0.3588188668003383 3.351861421703267 -0.3612917820359241 3.34213014950199 Q -0.3637646972715099 3.3323988773007134 -0.35572321465520573 3.319353746140549 L -0.3022710066762428 3.232641991958279 L -0.22933528667935682 3.113464576009241 L -0.16358434058134053 3.0068014447584845 Q -0.09925247965090722 2.9024403954771687 -0.08347699072779641 2.8729837373117117 Q -0.06770150180468565 2.843527079146255 -0.059481323066473024 2.8284741982839354 Q -0.0512611443282604 2.813421317421616 -0.04306987462639211 2.797556401872339 Q -0.03487860492452388 2.781691486323062 -0.026850266350431307 2.7665203483634446 Q -0.01882192777633873 2.751349210403826 -0.012633126590177235 2.7477515422679435 Q -0.006444325404015738 2.7441538741320604 -0.0006864995284925901 2.7442616081390687 Q 0.0050713263470305026 2.7443693421460766 0.010148518675106466 2.7464401518247628 Q 0.015225711003182374 2.7485109615034484 0.03255438575051933 2.7538982118103372 Q 0.08684249196197102 2.7714790478985867 0.12329212314478344 2.793947896385319 Q 0.15974175432759596 2.816416744872051 0.17938831532111232 2.841235009593228 Q 0.19903487631462857 2.8660532743144054 0.20547865620665284 2.8959697775442392 Q 0.2194857269871564 2.959140270812691 0.17431151581909488 3.032423213506556 Q 0.11281782522382777 3.1321800988489903 -0.008335574743464469 3.172393146660412 Q -0.10612656704927048 3.204769617496649 -0.23105378888764472 3.1987098321937117 M -0.2097359813856329 3.1615506584271076 Q 0.03754833613881209 3.175262768418632 0.13688429786962808 3.0141170305577765 Q 0.19151907682157687 2.925486874734306 0.14574016114656985 2.8623217019349085 Q 0.111671397621256 2.8153761766940777 0.03272791853379725 2.7974222226504843 Q 0.02339871260681431 2.7953777010562217 0.014836867336311621 2.793806207851153 Q -0.029238879015875963 2.859294665930996 -0.07299400501635445 2.9302755266554206 L -0.1444212917847031 3.04614698578394 Q -0.14891506148204958 3.0534369120205027 -0.15278863665655867 3.0605796721234224 Q -0.15666221183106782 3.0677224322263417 -0.16131891265618992 3.075706136052563 Q -0.16597561348131212 3.0836898398787844 -0.17308680431336027 3.0965142218384845 Q -0.18019799514540846 3.1093386037981845 -0.1910198300241901 3.1286119682711453 Q -0.1989141465068513 3.1422772939541472 -0.2097359813856329 3.1615506584271076 M 0.2023857457726297 3.3929784487059473 L 0.26424054085198934 3.212633933177644 Q 0.31615606310615435 3.058903775648808 0.34238686016276 2.9488298967764344 Q 0.34572048860594545 2.9347323645328642 0.356069276350355 2.9308534130915644 Q 0.3664180640947645 2.926974461650265 0.37688025537103254 2.930507601359229 Q 0.3873424466473005 2.934040741068193 0.39364775930184814 2.9435438740870272 Q 0.39995307195639584 2.9530470071058614 0.39152800186361436 2.975177568844071 Q 0.3831029317708328 2.997308130582281 0.37042647361727066 3.0313233774584916 Q 0.35775001546370855 3.0653386243347023 0.3439170784694515 3.1034827441488324 Q 0.3162512044809375 3.179770983777093 0.29519657601119287 3.2421171032193428 Q 0.27414194754144816 3.304463222661593 0.266640238203022 3.327381337075259 Q 0.2591385288645959 3.350299451488925 0.2523550678779864 3.3717950720408583 Q 0.2161304064003094 3.48610562624625 0.21656721711746266 3.5200298741376432 Q 0.21700402783461595 3.5539541220290363 0.22561598714793066 3.574940117085934 Q 0.24283990577456016 3.616912107199729 0.2872508401717793 3.6319099247398214 Q 0.3329428592150721 3.6473403716320316 0.3742274072292319 3.6236998275015138 Q 0.41679864102622555 3.599066618293001 0.4431218178643041 3.5380239880438653 Q 0.47377688936032325 3.46274521690388 0.48949575582061206 3.4161991414298716 Q 0.5052146222809009 3.369653065955863 0.5164657860043501 3.335632217942892 Q 0.5277169497277993 3.301611369929921 0.5411396619169788 3.2590471570414126 Q 0.579255853997448 3.134909352746029 0.6088636688195954 3.035966213156761 Q 0.6130513536934966 3.0221571004812695 0.6229010083305286 3.0183474533636097 Q 0.6327506629675606 3.01453780624595 0.6425723119207918 3.017854631278855 Q 0.652393960874023 3.0211714563117598 0.6583443502052324 3.0303168654388752 Q 0.6642947395364418 3.039462274565991 0.6592529982318248 3.0529829676734037 Q 0.6360576275485306 3.11603333262557 0.6149336947551464 3.1778803189604425 Q 0.593809761961762 3.239727305295315 0.5727607346287775 3.300648130307452 Q 0.5218658831364082 3.4485385014685566 0.4953207904855105 3.511646968470842 Q 0.46877569783461276 3.5747554354731275 0.4480634096180308 3.6043918879147987 Q 0.4273511214014488 3.63402834035647 0.40076334931405716 3.65359322234829 Q 0.34129858600914426 3.697259283506547 0.2734010997672418 3.6743299278442905 Q 0.16109267912812023 3.636402754641942 0.1753008922853083 3.502763908010243 Q 0.17945639011037348 3.4608759349478495 0.1956078859227804 3.413048774827767 L 0.2023857457726297 3.3929784487059473 M 0.8593712607016382 3.1958368224411204 Q 0.8556678795206645 3.2201214004985044 0.8311461753064242 3.3914523881341463 Q 0.8066244710921839 3.562783375769788 0.7849025160525741 3.7527276445408377 Q 0.7833052151483553 3.7670690854485325 0.7735192171521649 3.773408808254856 Q 0.7637332191559746 3.7797485310611796 0.7541404685461665 3.778375571059601 Q 0.7445477179363584 3.7770026110580224 0.7381437186322581 3.7692563273755493 Q 0.731739719328158 3.7615100436930766 0.735952715667772 3.7384366896601993 Q 0.7401657120073859 3.715363335627322 0.7469330525359833 3.674443003715732 Q 0.7537003930645807 3.633522671804142 0.7612340368498731 3.587248246528938 Q 0.7761736072110086 3.495591744872466 0.787572368154347 3.4159496060887107 Q 0.7989711290976851 3.3363074673049553 0.8051019730442973 3.291881180529295 Q 0.8112328169909095 3.247454893753635 0.815704590893839 3.209848522998889 Q 0.8262437680317082 3.1266685000487016 0.8297626775803945 3.076632267597477 Q 0.8304676295906777 3.062163109480333 0.8379269674449421 3.0561733553208383 Q 0.8453863052992064 3.0501836011613435 0.8556483175794662 3.051652349070009 Q 0.865910329859726 3.0531210969786744 0.8738440104258514 3.0613139730011674 Q 0.8817776909919767 3.0695068490236603 0.8787456609467152 3.085919515654383 Q 0.8757136309014539 3.102332182285105 0.8727454594609172 3.1182986744688597 Q 0.8697772880203805 3.134265166652614 0.8664259649514963 3.1529087055181755 Q 0.863074641882612 3.171552244383737 0.8593712607016382 3.1958368224411204 M 1.053172762410948 3.60098996236253 Q 1.0689445724595215 3.600660998862866 1.073253952600324 3.6127432331432807 Q 1.0775633327411263 3.6248254674236953 1.0781460680833876 3.652764102366883 Q 1.0787288034256493 3.6807027373100705 1.0868969405630091 3.7048766048280335 Q 1.095065077700369 3.729050472345996 1.108931533441648 3.7454415599690623 Q 1.1371150680684512 3.778214336258061 1.185782367646907 3.77719924888767 Q 1.2344496672253629 3.7761841615172793 1.262542331364947 3.739758088293277 Q 1.2906349955045313 3.7033320150692743 1.2892345508916772 3.636189166576775 Q 1.2873641584221605 3.5465151608720276 1.209752008689108 3.4782569972695776 Q 1.187708543651487 3.4588807288651955 1.1645479197103867 3.439978580997891 Q 1.1413872957692863 3.4210764331305867 1.1193250328173987 3.4007989184377148 Q 1.097262769865511 3.3805214037448423 1.0796127487847405 3.355643668038188 Q 1.041054956085019 3.3009971347381173 1.0395793198150989 3.2302493010916584 Q 1.0380660877166457 3.15769897486822 1.0799447896637253 3.11219438266031 Q 1.1213822674236933 3.0671498125537777 1.1853707539064777 3.0658151606408564 Q 1.240346777504363 3.0646684878706 1.2762660972403967 3.1008864670422933 Q 1.3163538127602337 3.142427333330727 1.3147596776346384 3.2172965679753234 Q 1.3143842461474595 3.2209109520864163 1.3146941483337813 3.2249618609060544 Q 1.3150040505201028 3.2290127697256925 1.3141124665878219 3.2403018457246495 Q 1.3132208826555405 3.251590921723607 1.3050676341511072 3.2605519537433487 Q 1.2969143856466738 3.2695129857630905 1.287225988045407 3.2697150633414553 Q 1.2775375904441404 3.26991714091982 1.2705949636163676 3.2612709739640424 Q 1.2636523367885948 3.2526248070082646 1.2656046858815557 3.2381578716067594 Q 1.2707766628860129 3.2051401956341445 1.2704242019935161 3.1882418277249585 Q 1.2700717411010192 3.1713434598157724 1.2636687641111817 3.1561491588327426 Q 1.2572657871213444 3.140954857849713 1.2457558356297558 3.1294736300276753 Q 1.220905243198199 3.105196900779398 1.1821516527931324 3.1060052110928575 Q 1.139342454089861 3.106898112020516 1.1129159976488245 3.1367525538244334 Q 1.083851595042251 3.169817751380865 1.0848384855412423 3.2171331815265862 Q 1.0858253760402334 3.2644486116723073 1.0967959410929622 3.2932976284620423 Q 1.107766506145691 3.322146645251778 1.1251536198258059 3.345226587860019 Q 1.142540733505921 3.36830653046826 1.1645747995864089 3.3872321757283976 Q 1.1866088656668967 3.406157820988535 1.209309467506619 3.4246187446687273 Q 1.232010069346341 3.4430796683489198 1.2540582338625288 3.4626812483254246 Q 1.2761063983787166 3.48228282830193 1.2937376215452205 3.506259317720094 Q 1.3322860152878089 3.5604552278759196 1.3337804494719956 3.6321043078108683 Q 1.33552865549878 3.7159202126404316 1.2933121178930544 3.7668416815364143 Q 1.2515368044744406 3.8173031283310186 1.1798877245394916 3.8187975625152055 Q 1.1131954991912372 3.8201886081709264 1.0702160656632653 3.769691672740393 Q 1.029555540556451 3.7223021045339078 1.0282960803005956 3.6619186032050832 Q 1.02703662004474 3.6015351018762582 1.053172762410948 3.60098996236253 M 1.8916209525675107 3.694601584885423 Q 1.871713429232622 3.700394250982179 1.8641063607035142 3.6702181471702393 Q 1.8564992921744063 3.6400420433583003 1.84448476031081 3.594718910921989 Q 1.8324702284472139 3.5493957784856778 1.8184763251266167 3.498076798361539 Q 1.7851445728091535 3.37868664802709 1.766885081851987 3.3159346722975496 L 1.7176474200295586 3.1467207239509953 Q 1.7075732181221563 3.1120989442381455 1.698073664159084 3.081065270020423 Q 1.6935402733007527 3.0654854691496407 1.6896365200616346 3.052069529510911 Q 1.6876854723764598 3.058270216658579 1.6855535074925596 3.0654623758229103 Q 1.675129589946667 3.0990074553648297 1.6706253517945466 3.1085328462965744 Q 1.666121113642426 3.11805823722832 1.6557345797285712 3.1210804978005404 Q 1.6453480458147163 3.124102758372761 1.6357871859584914 3.1186700119658983 Q 1.6262263261022665 3.113237265559035 1.6231411017681245 3.1026343455219747 Q 1.6200558774339826 3.092031425484915 1.6289348536380541 3.07818188466539 Q 1.6378138298421256 3.064332343845866 1.6438052760192416 3.055078328712209 Q 1.6497967221963579 3.045824313578552 1.654037558637428 3.0394267610580825 Q 1.6636206828859987 3.0239640846897196 1.6712288371882797 3.009780204310186 Q 1.678836991490561 2.9955963239306516 1.6909546143900585 2.9920703532630606 Q 1.7164881769282851 2.9846406293563517 1.7236819939613857 3.012589908174317 Q 1.7546139781731873 3.1350254124077166 1.7777846425602124 3.214655505747271 L 1.8177036676182936 3.351844307859439 Q 1.878652589158077 3.5613060751221814 1.909150143254699 3.658050192945359 Q 1.913738523787913 3.672205749553067 1.9076566190114341 3.681955500695056 Q 1.9015747142349553 3.6917052518370443 1.8916209525675107 3.694601584885423 M 2.2369586587904347 3.0317089735692924 Q 2.214717342635619 2.987903223255777 2.190337058739803 2.9568097172710948 Q 2.1659567748439867 2.925716211286412 2.1402475083688515 2.9079346760936096 Q 2.0863990199335394 2.870572426318861 2.0365649553566967 2.8958744740546147 Q 1.990749766955406 2.9191360340697434 1.9899663791094924 2.988280212873688 Q 1.9891519416307293 3.0523852716417683 2.018126867263609 3.1094533133346043 Q 2.0471017928964885 3.1665213550274403 2.0717047553440766 3.2010402206511968 Q 2.0963077177916647 3.2355590862749533 2.1212256288848295 3.255764367026227 Q 2.1728854701665825 3.2977762690724246 2.2207100966556492 3.273494465196983 Q 2.268936610762271 3.2490086125494795 2.2747901682768985 3.18487250414855 Q 2.280829144783879 3.1181148113436565 2.2369586587904347 3.0317089735692924 M 2.3032186203716285 3.153252033210171 Q 2.3182401368730785 3.268458918673458 2.2394701638322623 3.3084524779977142 Q 2.174766257405878 3.341304330299782 2.109507001953861 3.3003840862694505 Q 2.044247746501844 3.259463842239119 1.9834412124272092 3.1397013322076743 Q 1.9469164822280158 3.0677634486652967 1.9476501906613704 2.9905566778039687 Q 1.9476723939534193 2.896019059975209 2.017198951790466 2.860718622408391 Q 2.097174587683947 2.820112916767947 2.16380362964036 2.8707001983625977 Q 2.2292145888909674 2.9198839782590897 2.308793609995355 3.076620149105611 Q 2.4038803377764952 3.2638997788863264 2.4198289492397094 3.365998742329796 Q 2.43807798653474 3.481588885630929 2.3621212268168104 3.5201541035507473 Q 2.3146984879452988 3.5442318586541264 2.2583339838577117 3.523817198008964 Q 2.1957060671018844 3.50102226129132 2.156374333506375 3.431520543160553 Q 2.1486329000211386 3.4182644617078015 2.1515973777402433 3.4086715038599493 Q 2.154561855459348 3.399078546012097 2.161393944957786 3.3956097168870345 Q 2.1682260344562243 3.3921408877619714 2.177213055914459 3.3949075266355835 Q 2.186200077372693 3.3976741655091955 2.198217220181388 3.4178581509198462 Q 2.2102343629900827 3.438042136330497 2.2295968221906572 3.456265923663559 Q 2.2489592813912314 3.474489710996621 2.268769763256263 3.483639977301842 Q 2.308186678214264 3.5015386222947287 2.34355278855912 3.483582330353226 Q 2.4106680206908355 3.449506185418783 2.3635620463677527 3.2959966565610994 Q 2.3442324235561975 3.2340314443387626 2.3115846200261925 3.1697294255299333 L 2.3032186203716285 3.153252033210171 M 2.688219371129948 3.097159588798736 Q 2.7348482372172898 3.1385359093454044 2.786458730397065 3.1489734458594234 Q 2.8333778975289823 3.158084348188732 2.8575332847806285 3.137439218981606 Q 2.8816886720322747 3.116794089774479 2.889200359092298 3.094365348354406 Q 2.8967120461523215 3.071936606934333 2.8938131922974093 3.0477331132813137 Q 2.8877724367696755 2.9983480280503043 2.848824888052685 2.9527782903982627 Q 2.7849860488022795 2.878085036201683 2.7222443155747564 2.8913910619857806 Q 2.7020966796510315 2.895566759131154 2.685307828937121 2.9099158560268874 Q 2.668518978223211 2.924264952922621 2.6603967182917474 2.946326169289163 Q 2.652274458360284 2.9683873856557055 2.652482066258194 2.9942981206874237 Q 2.653084632324342 3.0518885965121854 2.688219371129948 3.097159588798736 M 2.627771388023606 3.0444705845873257 Q 2.6105791348205423 2.9986873323840406 2.617435095934419 2.9560670707993273 Q 2.625474225203594 2.9065064486046563 2.6540837973385223 2.882054416139478 Q 2.682693369473451 2.8576023836743 2.7093480145922295 2.849940470756823 Q 2.7360026597110085 2.8422785578393466 2.764349779575153 2.84769648967335 Q 2.8244644087141717 2.8597594057375697 2.8812751188727894 2.9262295493803974 Q 2.9219796998627268 2.9738550646708775 2.9334232049320472 3.039967396414882 Q 2.9465123471791514 3.1177173214700353 2.89340475818617 3.163107321854498 Q 2.855715501481474 3.1953195801918586 2.7980313505215486 3.1930376433773433 Q 2.741375088380842 3.1898771904263548 2.6804291963320157 3.143542869400586 Q 2.617626690221745 3.0964237073735075 2.546759721879552 3.0135073426231758 Q 2.4758927535373583 2.9305909778728445 2.44018710394077 2.8742461275790028 Q 2.404481454344182 2.8179012772851615 2.387494271371445 2.7654207122898287 Q 2.3509898454583817 2.651949539686586 2.4209419827128547 2.587419534570035 Q 2.4951052570327 2.5181045282704613 2.5876076814727407 2.581936585836286 Q 2.6194511459227794 2.603932391500539 2.6534204365330867 2.643677425843673 Q 2.663376952746453 2.6553268324614883 2.6622127733849466 2.6661048984299547 Q 2.6610485940234394 2.6768829643984207 2.65402468709211 2.682886157997656 Q 2.64700078016078 2.6888893515968917 2.6374438599351935 2.6884602223424463 Q 2.627886939709607 2.688031093088001 2.619494198845527 2.6768238978650887 Q 2.546395915901235 2.581584680590796 2.4817916619589346 2.598261304891375 Q 2.4625225421716825 2.603464890855968 2.441964765787303 2.6210352135854373 Q 2.4214069894029233 2.638605536314907 2.416325780521993 2.6708152569846844 Q 2.4112445716410624 2.7030249776544624 2.4245303397975775 2.745624981611593 Q 2.4499803121562254 2.8288190027816658 2.545527594148173 2.9517116363863742 Q 2.5713910759532252 2.9847475446307943 2.6094660151870754 3.0251339539458257 Q 2.6192292744767807 3.0351697943201064 2.627771388023606 3.0444705845873257 M 3.3213369731329134 2.69728983518612 Q 3.2477419774759007 2.7998115499716123 3.0448694917801595 2.6874696217801697 Q 2.980559410663256 2.6518464906533423 2.9095265082761648 2.6008556722338403 Q 2.8384936058890733 2.5498648538143387 2.791630381294815 2.5034631526982505 Q 2.7447671567005565 2.4570614515821623 2.7208718532438274 2.4138313617072966 Q 2.6713067212713426 2.3244328601220094 2.7204576647994188 2.2559630006045555 Q 2.7709228046785133 2.1856623961802177 2.866184009787653 2.2052206220491755 Q 2.956835677713384 2.2242440393931844 3.100891756953481 2.3265447353502493 Q 3.3334525799755803 2.4918235464450085 3.344210239743953 2.618279014906897 Q 3.3473580608830713 2.6610410860298206 3.3213369731329134 2.69728983518612 M 3.288120725538801 2.674000449849171 Q 3.3640812746276465 2.568183394231288 3.0784850691537744 2.3631687634724665 Q 2.9177456663293775 2.2477823238530785 2.836388992528013 2.242089229472514 Q 2.781853934153175 2.2384503194496537 2.7526787751605735 2.2790928563824737 Q 2.6788209402333574 2.3819807201493433 2.9373221210853493 2.567545244913097 Q 3.1588422548182886 2.726563003386285 3.2439334583097525 2.703866576703643 Q 3.271824690786177 2.69670168669453 3.288120725538801 2.674000449849171" fill="#17d8e8" fill-rule="nonzero"></path></g><g clip-path="url(#SvgjsClipPath1001)"><g clip-path="url(#SvgjsClipPath1000772f27d0-ed57-4991-9a3e-8542786d3586)"><path d=" M 1.0949498230861732 1.2017863332475105 C 0.9578790676140244 1.1289852681004768 0.6882876232414168 0.9430012969826654 0.7303757390295458 0.6290467035360845 C 0.7861140545327432 0.2098718206191818 0.851521261500781 0.08702002318356306 0.851521261500781 0.08702002318356306 C 0.851521261500781 0.08702002318356306 -0.1750875087366809 0.36116153412786034 0.10587910206515089 1.3951641625443172 C 0.15877362596104214 1.5908170251269693 0.2634251571099027 1.7688383797443241 0.4152836289400423 1.9036341019306284 C 0.5170913684815966 1.9940666750429585 0.6496120573820556 2.0748303566904487 0.8077268707482687 2.0913243480128236 C 0.9300099098624262 2.1038370310849697 1.0477428824048942 2.0714178067616813 1.142725522088914 2.0060105997936435 C 1.0147548997601443 1.9713163421845106 0.8890593107172198 1.919559334931542 0.7758764047464415 1.8496020613918143 C 0.708194164492559 1.8467582697845084 0.6399431659172156 1.8496020613918143 0.5756734755921 1.8712148776073398 C 0.621174141308996 1.8467582697845084 0.6729311485619649 1.8359518616767458 0.7235506391720112 1.827989245176289 C 0.728669464065162 1.8274204868548276 0.7337882889583129 1.8268517285333667 0.7389071138514636 1.8257142118904441 C 0.59956132509347 1.732437847170808 0.4823971108724635 1.6101548080566506 0.41016480404689143 1.4600026111908941 C 0.340207530507164 1.4110893955452308 0.2679752236815919 1.364451213185413 0.1877803003555632 1.3343070221479691 C 0.25660005725236806 1.3485259801844993 0.32257602254186696 1.3769638962575592 0.3868457128669825 1.4059705706520802 C 0.36750792993730186 1.357057355006417 0.35328897190077185 1.3058691060749095 0.34362008043593123 1.2518370655360955 C 0.3419138054715476 1.2433056907141777 0.34077628882862526 1.2347743158922597 0.3390700138642417 1.226242941070342 L 0.333951188971091 1.189273650175364 C 0.3077883061838757 0.9572202550191953 0.3663704132943793 0.7223230682557208 0.45111540319209775 0.5090386977077718 C 0.39367081272451676 0.6819412274319757 0.35385773022223294 0.8684939568712486 0.3601140717583063 1.051065378060293 C 0.37945185468798676 0.9913457543068671 0.40902728740396926 0.9344699221607476 0.4454278199774859 0.8827129149077784 C 0.4550967114423263 0.8684939568712484 0.4664718778715501 0.8554125154776407 0.4767095276578518 0.8417623157625722 C 0.4585092613710935 0.8707689901570933 0.4403089950843352 0.8997756645516142 0.42665879536926626 0.9310573722319799 C 0.39139577943867204 1.0067022289863194 0.3720579965089912 1.089740943919654 0.3720579965089912 1.1733484171744504 C 0.3822956462952929 1.2364805908566432 0.39935839593912886 1.2984752478959138 0.42381500376196035 1.3593323882922619 C 0.47102194444323986 1.475359085870346 0.5455292845546564 1.5720480005187494 0.636530615988448 1.6511054072018563 C 0.6126427664870777 1.535078709623772 0.6291367578094526 1.4127956705096145 0.6729311485619646 1.3030253144676036 C 0.6643997737400467 1.3360132971123528 0.6558683989181288 1.3690012797571023 0.6524558489893615 1.4031267790447741 C 0.6416494408815986 1.4861654939781095 0.6490432990605939 1.5720480005187498 0.6746374235263479 1.6516741655233174 C 0.6797562484194986 1.6664618818813088 0.6860125899555718 1.682387114882222 0.6922689314916454 1.6954685562758298 C 0.8338897535354832 1.80012008742469 1.0067922832596878 1.8678023276785727 1.1779885380195076 1.9024965852877054 C 1.199032595913572 1.9070466518593951 1.2212141704505592 1.9110279601096236 1.2428269866660844 1.914440510038391 C 1.2906026856688246 1.8564271612493488 1.325296943277958 1.787038646031083 1.3412221762788714 1.7091187559908982 C 1.3605599592085524 1.6175486662356455 1.3554411343154016 1.5111908601224013 1.2957215105619757 1.4002829874374678 C 1.251927119809464 1.3144004808968275 1.1802635713053529 1.2467182406429445 1.0949498230861732 1.2017863332475105 Z" fill="#00d3a9" transform="matrix(1,0,0,1,0,0)" fill-rule="nonzero"></path></g><g clip-path="url(#SvgjsClipPath1000772f27d0-ed57-4991-9a3e-8542786d3586)"><path d=" M 1.8161353746989721 0.2633351028365342 C 1.7143276351574177 0.17290252972420375 1.5818069462569586 0.0921388480767138 1.4236921328907455 0.07564485675433902 C 1.17400722976928 0.049481973967124025 0.9402475596487274 0.21328437054794885 0.8884905523957585 0.45898796541918624 C 0.8691527694660777 0.550558055174439 0.8742715943592286 0.656915861287683 0.9339912181126542 0.7678237339726165 C 0.9794918838295499 0.8525687238703348 1.0517241906551222 0.9202509641242174 1.1364691805528409 0.9651828715196519 C 1.2735399360249893 1.0379839366666854 1.543131380397597 1.223967907784497 1.5010432646094685 1.537922501231078 C 1.445304949106271 1.9570973841479804 1.3798977421382337 2.079949181583599 1.3798977421382337 2.079949181583599 C 1.3798977421382337 2.079949181583599 2.4065065123756946 1.805807670639302 2.1255399015738634 0.7718050422228449 C 2.0720766193565106 0.5767209379616541 1.9674250882076507 0.39813082502283803 1.8161353746989721 0.2633351028365342 Z M 1.687595994048741 0.3327236180548004 C 1.6256013370094706 0.28324164408767616 1.5619004050058165 0.24456607822831467 1.4845492732870935 0.21954071208402193 C 1.5209498058606101 0.20475299572603087 1.5624691633272778 0.2058905123689532 1.6005759708651777 0.21499064551233224 C 1.7143276351574168 0.24342856158539214 1.80589772491267 0.34296126784110165 1.8286480577711182 0.45728169045480244 C 1.7785973254825327 0.4168998496310576 1.7365092096944041 0.3719679422356229 1.687595994048741 0.3327236180548004 Z M 1.9719751547793403 0.6535033113589157 C 1.9099804977400696 0.6097089206064036 1.867892381951941 0.5499892968529779 1.860498523772945 0.4737756817771773 C 1.9338683472414402 0.4925447063853969 1.9930192126734043 0.5778584546045764 1.9719751547793403 0.6535033113589157 Z" fill="#17d8e8" transform="matrix(1,0,0,1,0,0)" fill-rule="nonzero"></path></g><g clip-path="url(#SvgjsClipPath1000772f27d0-ed57-4991-9a3e-8542786d3586)"><path d=" M 1.9327308305985176 0.2240907786557116 C 1.9947254876377878 0.2240907786557116 2.0447762199263737 0.17347128804566492 2.0447762199263737 0.1120453893278556 C 2.0447762199263737 0.05061949061004637 1.9941567293163274 -3.0257690111684836e-16 1.9327308305985176 -3.0257690111684836e-16 C 1.8713049318807078 -3.0257690111684836e-16 1.820685441270661 0.05061949061004637 1.820685441270661 0.1120453893278556 C 1.820685441270661 0.17347128804566492 1.870736173559247 0.2240907786557116 1.9327308305985176 0.2240907786557116 Z M 1.9327308305985176 0.042656874109589564 C 1.970837638136418 0.042656874109589564 2.002119345816784 0.07393858178995541 2.002119345816784 0.1120453893278556 C 2.002119345816784 0.1501521968657559 1.970837638136418 0.18143390454612174 1.9327308305985176 0.18143390454612174 C 1.8946240230606168 0.18143390454612174 1.8633423153802513 0.1501521968657559 1.8633423153802513 0.1120453893278556 C 1.8633423153802513 0.07336982346849423 1.8946240230606168 0.042656874109589564 1.9327308305985176 0.042656874109589564 Z" fill="#17d8e8" transform="matrix(1,0,0,1,0,0)" fill-rule="nonzero"></path></g><g clip-path="url(#SvgjsClipPath1000772f27d0-ed57-4991-9a3e-8542786d3586)"><path d=" M 2.1659217423976087 0.2843791607305985 C 2.1079083936085663 0.2843791607305985 2.060701452927287 0.33158610141187805 2.060701452927287 0.3895994502009201 C 2.060701452927287 0.44761279898996226 2.1079083936085663 0.4948197396712416 2.1659217423976087 0.4948197396712416 C 2.223935091186651 0.4948197396712416 2.2711420318679303 0.44761279898996226 2.2711420318679303 0.3895994502009201 C 2.2711420318679303 0.33158610141187805 2.223935091186651 0.2843791607305985 2.1659217423976087 0.2843791607305985 Z M 2.1659217423976087 0.4521628655616518 C 2.1317962431099367 0.4521628655616518 2.1033583270368768 0.4242937078100531 2.1033583270368768 0.3895994502009201 C 2.1033583270368768 0.354905192591787 2.1312274847884756 0.32703603484018823 2.1659217423976087 0.32703603484018823 C 2.2000472416852803 0.32703603484018823 2.22848515775834 0.354905192591787 2.22848515775834 0.3895994502009201 C 2.22848515775834 0.4242937078100531 2.2000472416852803 0.4521628655616518 2.1659217423976087 0.4521628655616518 Z" fill="#17d8e8" transform="matrix(1,0,0,1,0,0)" fill-rule="nonzero"></path></g><g clip-path="url(#SvgjsClipPath1000772f27d0-ed57-4991-9a3e-8542786d3586)"><path d=" M 2.1659217423976087 0.2240907786557116 C 2.2091473748286594 0.2240907786557116 2.2444103907592536 0.18882776272511737 2.2444103907592536 0.1456021302940662 C 2.2444103907592536 0.10237649786301528 2.209147374828659 0.06711348193242105 2.1659217423976087 0.06711348193242105 C 2.122696109966558 0.06711348193242105 2.0874330940359633 0.10237649786301528 2.0874330940359633 0.1456021302940662 C 2.0874330940359633 0.18882776272511725 2.1226961099665576 0.2240907786557116 2.1659217423976087 0.2240907786557116 Z M 2.1659217423976087 0.10977035604201081 C 2.18582828364875 0.10977035604201081 2.2017535166496636 0.12569558904292433 2.2017535166496636 0.1456021302940662 C 2.2017535166496636 0.16550867154520812 2.18582828364875 0.18143390454612174 2.1659217423976087 0.18143390454612174 C 2.1460152011464664 0.18143390454612174 2.1300899681455534 0.16550867154520812 2.1300899681455534 0.1456021302940662 C 2.1300899681455534 0.12569558904292433 2.1460152011464664 0.10977035604201081 2.1659217423976087 0.10977035604201081 Z" fill="#17d8e8" transform="matrix(1,0,0,1,0,0)" fill-rule="nonzero"></path></g><g clip-path="url(#SvgjsClipPath1000772f27d0-ed57-4991-9a3e-8542786d3586)"><path d=" M 0.3305386390423238 2.0185232828657895 C 0.3003944480048802 2.0173857662228674 0.2719565319318202 2.027623416009169 0.2497749573948336 2.047529957260311 C 0.22759338285784722 2.0680052568329144 0.21451194146423957 2.095305656263051 0.21337442482131702 2.1254498473004952 C 0.21053063321401105 2.1874445043397652 0.25887509053821295 2.239770269914196 0.3203009892560221 2.242614061521502 C 0.3220072642204057 2.242614061521502 0.32371353918478935 2.242614061521502 0.32541981414917276 2.242614061521502 C 0.35328897190077124 2.242614061521502 0.38002061300944784 2.2323764117352 0.40106467090351205 2.2130386288055197 C 0.42324624544049866 2.1925633292329163 0.43632768683410633 2.1652629298027795 0.43746520347702866 2.1351187387653354 C 0.440308995084335 2.073692840047526 0.3925332960815942 2.0213670744730954 0.3305386390423238 2.0185232828657895 Z M 0.3720579965089912 2.181756921125154 C 0.3584077967939225 2.1942696041973 0.34077628882862526 2.2005259457333732 0.3220072642204057 2.199957187411912 C 0.2839004566825055 2.1982509124475285 0.2543250239665234 2.16583168812424 0.2560312989309066 2.1277248805863396 C 0.25660005725236806 2.1089558559781203 0.26513143207428597 2.0918931063342843 0.27878163178935467 2.0793804232621382 C 0.2918630731829621 2.067436498511453 0.3083570645053368 2.0611801569753796 0.32541981414917276 2.0611801569753796 C 0.3265573307920951 2.0611801569753796 0.3276948474350174 2.0611801569753796 0.32883236407794 2.0611801569753796 C 0.36693917161584017 2.0628864319397637 0.3965146043318225 2.0953056562630517 0.3948083293674391 2.133412463800952 C 0.3942395710459778 2.1521814884091715 0.3857081962240597 2.169244238053007 0.3720579965089912 2.181756921125154 Z" fill="#00d3a9" transform="matrix(1,0,0,1,0,0)" fill-rule="nonzero"></path></g><g clip-path="url(#SvgjsClipPath1000772f27d0-ed57-4991-9a3e-8542786d3586)"><path d=" M 0.10986041031537898 1.736987913742497 C 0.08199125256378027 1.7358503970995744 0.05469085313364283 1.7455192885644149 0.03421555356103965 1.7642883131726343 C 0.01374025398843647 1.783057337780854 0.0012275709162900936 1.809220220568069 0.00009005427336775069 1.837089378319668 C -0.001047462369554592 1.8649585360712664 0.008621429095285625 1.8922589355014037 0.02739045370350519 1.912734235074007 C 0.046159478311724955 1.9332095346466105 0.07232236109893984 1.945722217718757 0.10019151885053856 1.946859734361679 C 0.10189779381492238 1.946859734361679 0.1036040687793058 1.946859734361679 0.10474158542222833 1.946859734361679 C 0.16047990092542574 1.946859734361679 0.20711808328524384 1.9024965852877054 0.20996187489254978 1.846189511463047 C 0.21109939153547214 1.8183203537114485 0.20143050007063193 1.791019954281311 0.18266147546241235 1.7705446547087076 C 0.1638924508541928 1.750638113457566 0.1377295680669777 1.7386941887068803 0.10986041031537898 1.736987913742497 Z M 0.10246655213638324 1.9047716185735502 C 0.08597256081400857 1.9042028602520888 0.07061608613455624 1.8968090020730934 0.0592409197053324 1.8842963190009472 C 0.04786575327610837 1.8717836359288007 0.042178170061496455 1.855858402927887 0.04274692838295752 1.8393644116055128 C 0.04331568670441879 1.8228704202831378 0.05070954488341433 1.8075139456036855 0.0632222279555607 1.7961387791744612 C 0.07459739438478453 1.7853323710666986 0.0893851107427758 1.7796447878520867 0.10531034374368921 1.7796447878520867 C 0.10644786038661155 1.7796447878520867 0.10701661870807302 1.7796447878520867 0.10815413535099537 1.7796447878520867 C 0.12464812667337004 1.780213546173548 0.1400046013528224 1.7876074043525434 0.1513797677820462 1.80012008742469 C 0.16275493421127024 1.8126327704968361 0.16844251742588215 1.8285580034977498 0.1678737591044211 1.8450519948201245 C 0.1655987258185764 1.8797462524292579 0.13659205142405514 1.9064778935379338 0.10246655213638324 1.9047716185735502 Z" fill="#00d3a9" transform="matrix(1,0,0,1,0,0)" fill-rule="nonzero"></path></g><g clip-path="url(#SvgjsClipPath1000772f27d0-ed57-4991-9a3e-8542786d3586)"><path d=" M 0.09734772724323261 2.007716874758027 C 0.07630366934916835 2.006579358115105 0.056397128098026446 2.0139732162941004 0.04047189509711284 2.0281921743306306 C 0.025115420417660704 2.0424111323671603 0.016015287274281358 2.061748915296841 0.014877770631359014 2.082792973190905 C 0.0131714956669754 2.1260186056219568 0.046728236633186024 2.1629878965169347 0.08995386906423707 2.1646941714813175 C 0.09109138570715941 2.1646941714813175 0.09222890235008176 2.1646941714813175 0.0933664189930041 2.1646941714813175 C 0.11327296024414601 2.1646941714813175 0.1314732265309043 2.157300313302322 0.14626094288889557 2.1442188719087145 C 0.1616174175683479 2.1299999138721843 0.17071755071172726 2.110662130942504 0.1718550673546496 2.0896180730484395 C 0.17299258399757192 2.068574015154375 0.1655987258185764 2.0486674739032336 0.1513797677820464 2.0327422409023197 C 0.1377295680669777 2.017954524544329 0.11839178513729685 2.00885439140095 0.09734772724323261 2.007716874758027 Z M 0.11839178513729685 2.1129371642283488 C 0.1115666852797626 2.119193505764422 0.10246655213638324 2.122606055693189 0.09279766067154303 2.122037297371728 C 0.07289111942040112 2.1208997807288057 0.05753464474094879 2.1044057894064307 0.05867216138387113 2.084499248155289 C 0.0592409197053324 2.0748303566904482 0.0632222279555607 2.0662989818685302 0.07004732781309517 2.0594738820109963 C 0.07687242767062942 2.0532175404749227 0.08654131913546984 2.049804990546156 0.09564145227884899 2.050373748867617 C 0.10531034374368921 2.0509425071890783 0.11384171856560728 2.054923815439307 0.12066681842314174 2.061748915296841 C 0.12692315995921494 2.068574015154375 0.13033570988798196 2.0782429066192156 0.12976695156652088 2.0873430397625947 C 0.12919819324505963 2.0975806895488964 0.1252168849948313 2.1066808226922755 0.11839178513729685 2.1129371642283488 Z" fill="#00d3a9" transform="matrix(1,0,0,1,0,0)" fill-rule="nonzero"></path></g></g><g transform="matrix(-0.14465903622132945,-0.9894815628598221,0.9894815628598221,-0.14465903622132945,-2.756395143494402,0.3749216555659012)"><g clip-path="url(#SvgjsClipPath1002)"><path d=" M -1.3952726613073874 1.5044863204003582 C -1.3952726613073874 1.5353091704604545 -1.3758732480148694 1.554060882074036 -1.3439715491529403 1.554060882074036 L -1.0883290183724417 1.554060882074036 C -1.0564270742618647 1.554060882074036 -1.0370279062179946 1.5353091704604545 -1.0370279062179946 1.5044863204003582 L -1.0370279062179946 1.2453936316420948 C -1.0370279062179946 1.2145698005874075 -1.0564270742618647 1.1958168627305865 -1.0883290183724417 1.1958168627305865 L -1.3439715491529403 1.1958168627305865 C -1.3758732480148694 1.1958168627305865 -1.3952726613073874 1.2145698005874075 -1.3952726613073874 1.2453936316420948 L -1.3952726613073874 1.5044863204003582 Z" fill="#050706" transform="matrix(1,0,0,1,0,0)" fill-rule="nonzero"></path></g></g><g transform="matrix(0.14465903622132945,-0.9894815628598221,-0.9894815628598221,-0.14465903622132945,4.347141737489184,5.0288911469660444)"><g clip-path="url(#SvgjsClipPath1003)"><path d=" M 3.3081696928372764 1.5044863204003582 C 3.3081696928372764 1.5353091704604545 3.3275691061297943 1.554060882074036 3.3594708049917235 1.554060882074036 L 3.615113335772222 1.554060882074036 C 3.6470152798827993 1.554060882074036 3.666414447926669 1.5353091704604545 3.666414447926669 1.5044863204003582 L 3.666414447926669 1.2453936316420948 C 3.666414447926669 1.2145698005874075 3.6470152798827993 1.1958168627305865 3.615113335772222 1.1958168627305865 L 3.3594708049917235 1.1958168627305865 C 3.3275691061297943 1.1958168627305865 3.3081696928372764 1.2145698005874075 3.3081696928372764 1.2453936316420948 L 3.3081696928372764 1.5044863204003582 Z" fill="#050706" transform="matrix(1,0,0,1,0,0)" fill-rule="nonzero"></path></g></g></g><defs><clipPath id="SvgjsClipPath1001"><path d=" M 0 0 h 2.27114203186793 v 2.242614061521502 h -2.27114203186793 Z"></path></clipPath><clipPath id="SvgjsClipPath1000772f27d0-ed57-4991-9a3e-8542786d3586"><path d=" M 0 -2.0171793407789891e-16 L 2.27114203186793 -2.0171793407789891e-16 L 2.27114203186793 2.242614061521502 L 0 2.242614061521502 Z"></path></clipPath><clipPath id="SvgjsClipPath1002"><path d=" M -1.5594982681095209 1.023210373885935 h 0.6866962139423076 v 0.7112210787259615 h -0.6866962139423076 Z"></path></clipPath><clipPath id="SvgjsClipPath1003"><path d=" M 3.143944086035143 1.023210373885935 h 0.6866962139423076 v 0.7112210787259615 h -0.6866962139423076 Z"></path></clipPath></defs></svg>